{"title":"Gangs Of Wasseypur 2 2012 Hindi DvDrip 720p x264 ...Hon3y","uid":7685895,"size":952019334,"categoryP":"video","categoryS":"hd___movies","magnet":"?xt=urn:btih:dd6cf23bdc523886166f7fb877b37624a9c687c7&amp;dn=Gangs+Of+Wasseypur+2+2012+Hindi+DvDrip+720p+x264+...Hon3y&amp;tr=udp%3A%2F%2Ftracker.openbittorrent.com%3A80&amp;tr=udp%3A%2F%2Fopen.demonii.com%3A1337&amp;tr=udp%3A%2F%2Ftracker.coppersurfer.tk%3A6969&amp;tr=udp%3A%2F%2Fexodus.desync.com%3A6969","seeders":20,"leechers":9,"uploader":"honey8ee","files":-1,"time":1348945695,"description":" &lt;a href=&quot;http://en.wikipedia.org/wiki/Gangs_of_Wasseypur_-_Part_2&quot; rel=&quot;nofollow&quot; target=&quot;_NEW&quot;&gt;http://en.wikipedia.org/wiki/Gangs_of_Wasseypur_-_Part_2&lt;/a&gt;\n\n\nFormat                                   : Matroska\nFormat version                           : Version 2\nFile size                                : 897 MiB\nDuration                                 : 2h 39mn\nOverall bit rate                         : 784 Kbps\n\nVideo\nID                                       : 1\nFormat                                   : AVC\nFormat/Info                              : Advanced Video Codec\nFormat profile                           : &lt;a class=&quot;__cf_email__&quot; href=&quot;/cdn-cgi/l/email-protection&quot; data-cfemail=&quot;dc94b5bbb49c90e8f2ed&quot;&gt;[email&amp;#160;protected]&lt;/a&gt;&lt;script cf-hash='f9e31' type=&quot;text/javascript&quot;&gt;\n/* &lt;![CDATA[ */!function(){try{var t=&quot;currentScript&quot;in document?document.currentScript:function(){for(var t=document.getElementsByTagName(&quot;script&quot;),e=t.length;e--;)if(t[e].getAttribute(&quot;cf-hash&quot;))return t[e]}();if(t&amp;&amp;t.previousSibling){var e,r,n,i,c=t.previousSibling,a=c.getAttribute(&quot;data-cfemail&quot;);if(a){for(e=&quot;&quot;,r=parseInt(a.substr(0,2),16),n=2;a.length-n;n+=2)i=parseInt(a.substr(n,2),16)^r,e+=String.fromCharCode(i);e=document.createTextNode(e),c.parentNode.replaceChild(e,c)}}}catch(u){}}();/* ]]&gt; */&lt;/script&gt;\nFormat settings, CABAC                   : Yes\nFormat settings, ReFrames                : 4 frames\nMuxing mode                              : Header stripping\nCodec ID                                 : V_MPEG4/ISO/AVC\nDuration                                 : 2h 39mn\nBit rate                                 : 720 Kbps\nWidth                                    : 1 280 pixels\nHeight                                   : 544 pixels\nDisplay aspect ratio                     : 2.40:1\nOriginal display aspect ratio            : 2.40:1\nFrame rate                               : 23.976 fps\nColor space                              : YUV\nChroma subsampling                       : 4:2:0\nBit depth                                : 8 bits\nScan type                                : Progressive\nBits/(Pixel*Frame)                       : 0.043\nStream size                              : 806 MiB (90%)\n\nAudio\nID                                       : 2\nFormat                                   : AC-3\nBit rate mode                            : Constant\nBit rate                                 : 64.0 Kbps\nChannel(s)                               : 2 channels\nChannel positions                        : Front: L R\nSampling rate                            : 32.0 KHz\nBit depth                                : 16 bits\nCompression mode                         : Lossy\nStream size                              : 73.2 MiB (8%)\n\n &lt;a href=&quot;\nhttp://www.shotpix.com/images/82136738726370476355.png&quot; rel=&quot;nofollow&quot; target=&quot;_NEW&quot;&gt;\nhttp://www.shotpix.com/images/82136738726370476355.png&lt;/a&gt;\n &lt;a href=&quot;\nhttp://www.shotpix.com/images/28969307817642948097.png&quot; rel=&quot;nofollow&quot; target=&quot;_NEW&quot;&gt;\nhttp://www.shotpix.com/images/28969307817642948097.png&lt;/a&gt;\n &lt;a href=&quot;\nhttp://www.shotpix.com/images/24536249712778721806.png&quot; rel=&quot;nofollow&quot; target=&quot;_NEW&quot;&gt;\nhttp://www.shotpix.com/images/24536249712778721806.png&lt;/a&gt;\n &lt;a href=&quot;\nhttp://www.shotpix.com/images/52333095097393322517.png&quot; rel=&quot;nofollow&quot; target=&quot;_NEW&quot;&gt;\nhttp://www.shotpix.com/images/52333095097393322517.png&lt;/a&gt;\n &lt;a href=&quot;\nhttp://www.shotpix.com/images/50912226040743214423.png&quot; rel=&quot;nofollow&quot; target=&quot;_NEW&quot;&gt;\nhttp://www.shotpix.com/images/50912226040743214423.png&lt;/a&gt;\n &lt;a href=&quot;\nhttp://www.shotpix.com/images/66002558335684534398.png&quot; rel=&quot;nofollow&quot; target=&quot;_NEW&quot;&gt;\nhttp://www.shotpix.com/images/66002558335684534398.png&lt;/a&gt;\n &lt;a href=&quot;\nhttp://www.shotpix.com/images/43236358922976791881.png&quot; rel=&quot;nofollow&quot; target=&quot;_NEW&quot;&gt;\nhttp://www.shotpix.com/images/43236358922976791881.png&lt;/a&gt;\n &lt;a href=&quot;\nhttp://www.shotpix.com/images/78497004956252610039.png&quot; rel=&quot;nofollow&quot; target=&quot;_NEW&quot;&gt;\nhttp://www.shotpix.com/images/78497004956252610039.png&lt;/a&gt;\n &lt;a href=&quot;\nhttp://www.shotpix.com/images/06622162398866095787.png&quot; rel=&quot;nofollow&quot; target=&quot;_NEW&quot;&gt;\nhttp://www.shotpix.com/images/06622162398866095787.png&lt;/a&gt;\n\n\n                               Check the Sample First\n","torrent":{"xt":"urn:btih:dd6cf23bdc523886166f7fb877b37624a9c687c7","amp;dn":"Gangs+Of+Wasseypur+2+2012+Hindi+DvDrip+720p+x264+...Hon3y","amp;tr":["udp%3A%2F%2Ftracker.openbittorrent.com%3A80","udp%3A%2F%2Fopen.demonii.com%3A1337","udp%3A%2F%2Ftracker.coppersurfer.tk%3A6969","udp%3A%2F%2Fexodus.desync.com%3A6969"],"infoHash":"dd6cf23bdc523886166f7fb877b37624a9c687c7","infoHashBuffer":{"type":"Buffer","data":[221,108,242,59,220,82,56,134,22,111,127,184,119,179,118,36,169,198,135,199]},"announce":[],"urlList":[]}}